<?xml version="1.0" encoding="UTF-8" standalone="no"?>
<!-- Created with Inkscape (http://www.inkscape.org/) -->

<svg
   xmlns:dc="http://purl.org/dc/elements/1.1/"
   xmlns:cc="http://creativecommons.org/ns#"
   xmlns:rdf="http://www.w3.org/1999/02/22-rdf-syntax-ns#"
   xmlns:svg="http://www.w3.org/2000/svg"
   xmlns="http://www.w3.org/2000/svg"
   xmlns:sodipodi="http://sodipodi.sourceforge.net/DTD/sodipodi-0.dtd"
   xmlns:inkscape="http://www.inkscape.org/namespaces/inkscape"
   width="200mm"
   height="200mm"
   viewBox="0 0 200 200"
   version="1.1"
   id="svg8"
   sodipodi:docname="logo.svg"
   inkscape:version="0.92.2 5c3e80d, 2017-08-06">
  <defs
     id="defs2" />
  <sodipodi:namedview
     id="base"
     pagecolor="#ffffff"
     bordercolor="#666666"
     borderopacity="1.0"
     inkscape:pageopacity="0.0"
     inkscape:pageshadow="2"
     inkscape:zoom="0.49497475"
     inkscape:cx="41.60385"
     inkscape:cy="325.52588"
     inkscape:document-units="mm"
     inkscape:current-layer="layer1"
     showgrid="false"
     inkscape:window-width="1920"
     inkscape:window-height="1055"
     inkscape:window-x="0"
     inkscape:window-y="0"
     inkscape:window-maximized="1" />
  <metadata
     id="metadata5">
    <rdf:RDF>
      <cc:Work
         rdf:about="">
        <dc:format>image/svg+xml</dc:format>
        <dc:type
           rdf:resource="http://purl.org/dc/dcmitype/StillImage" />
        <dc:title></dc:title>
      </cc:Work>
    </rdf:RDF>
  </metadata>
  <g
     inkscape:label="Layer 1"
     inkscape:groupmode="layer"
     id="layer1"
     transform="translate(0,-97)">
    <path
       sodipodi:type="star"
       style="fill:#242620;fill-opacity:1;stroke:#095e36;stroke-width:4.36499977;stroke-linecap:round;stroke-miterlimit:4;stroke-dasharray:none;stroke-dashoffset:0;stroke-opacity:1"
       id="path819"
       sodipodi:sides="32"
       sodipodi:cx="101.54589"
       sodipodi:cy="197.72197"
       sodipodi:r1="0.86361563"
       sodipodi:r2="86.361565"
       sodipodi:arg1="0.81325473"
       sodipodi:arg2="0.9114295"
       inkscape:flatsided="false"
       inkscape:rounded="1.5"
       inkscape:randomized="0"
       d="M 102.13931,198.34941 C 8.9598236,286.477 255.82123,187.4104 154.45241,265.98045 53.083593,344.55049 210.58742,130.1973 102.0055,198.45312 -6.5764086,266.70895 254.86856,217.70616 140.11926,274.99043 25.369959,332.2747 221.66562,152.76771 101.85403,198.52874 -17.957562,244.28977 248.02379,247.23394 124.30375,281.03103 0.58372282,314.82812 228.1277,177.06569 101.69072,198.57336 -24.746264,220.08102 235.54995,274.859 107.61368,283.87011 -20.322594,292.88121 229.7253,202.15748 101.52184,198.58525 -26.681629,195.01302 217.92641,299.51973 90.690419,283.39856 -36.545573,267.27739 226.39705,227.07882 101.35388,198.56397 -23.689283,170.04912 195.83043,320.26843 74.184329,279.63451 -47.461774,239.0006 218.27083,250.87199 101.1933,198.51033 c -117.07752,-52.36165 68.91785,137.7974 -42.46357,74.21228 -111.381424,-63.58512 146.92921,-0.1 42.31655,-74.29621 -104.6126627,-74.19623 40.71067,148.59487 -56.125749,64.50208 -96.836419,-84.09279 144.125509,28.5664 55.997919,-64.61309 -88.12759,-93.17949 10.93901,153.68192 -67.631037,52.3131 -78.570045,-101.36882 135.783147,56.135 67.527327,-52.44691 C 32.558909,89.59967 81.561698,351.04464 24.27743,236.29534 -33.006838,121.54604 146.50015,317.8417 100.73912,198.03011 54.978088,78.218517 52.033919,344.19987 18.236831,220.47983 -15.560258,96.759802 122.20217,324.30378 100.69451,197.8668 79.186843,71.429815 24.408858,331.72603 15.397752,203.78976 6.3866461,75.853485 97.110378,325.90138 100.68261,197.69792 104.25484,69.494449 -0.25187035,314.10249 15.869298,186.8665 31.990466,59.630506 72.189042,322.57312 100.70389,197.52996 129.21874,72.486796 -21.000568,292.00651 19.633347,170.36041 60.267262,48.714305 48.395874,314.44691 100.75753,197.36938 153.11918,80.291859 -37.039874,266.28723 26.54525,154.90581 90.130373,43.524384 26.645231,301.83502 100.84146,197.22236 175.0377,92.609696 -47.753406,237.93303 36.339385,141.09661 120.43218,44.260191 7.7729783,285.22212 100.95247,197.09453 194.13196,108.96694 -52.729451,208.03354 48.639369,129.46349 150.00819,50.893447 -7.4956339,265.24664 101.08628,196.99081 209.66819,128.73499 -51.77678,177.73778 62.972521,120.45351 177.72182,63.169241 -18.573841,242.67623 101.23775,196.9152 221.04934,151.15417 -44.932005,148.21 78.788027,114.41291 202.50806,80.615821 -25.035915,218.37825 101.40107,196.87058 227.83805,175.36292 -32.458167,120.58494 95.478104,111.57383 c 127.936276,-9.01111 -122.111625,81.71263 6.091846,85.28486 128.20346,3.57223 -116.404578,-100.934482 10.83141,-84.81331 127.23599,16.12116 -135.706624,56.31974 -10.66346,84.83459 125.04316,28.51485 -94.4765511,-121.704459 27.16955,-81.07054 121.64611,40.63391 -144.086497,28.76252 -27.00897,81.12418 117.07752,52.36165 -68.917852,-137.797405 42.46357,-74.21228 111.38143,63.58512 -146.9292059,0.1 -42.31655,74.29621 104.61266,74.19623 -40.710668,-148.594867 56.12575,-64.50208 96.83642,84.09279 -144.125509,-28.5664 -55.99792,64.61309 88.12759,93.17949 -10.939006,-153.681922 67.63104,-52.3131 78.57004,101.36882 -135.783151,-56.135005 -67.52732,52.44691 68.25582,108.58191 19.25303,-152.863061 76.5373,-38.11376 57.28427,114.7493 -122.222717,-81.546363 -76.46169,38.26523 45.76103,119.81159 48.7052,-146.169756 82.50229,-22.44972 33.79709,123.72003 -103.965336,-103.823946 -82.45767,22.61303 21.50766,126.43698 76.28564,-133.859228 85.29675,-5.92296 9.01111,127.93627 -81.71263,-122.111622 -85.28486,6.09184 -3.572231,128.20347 100.93448,-116.404569 84.81331,10.83142 -16.12116,127.23599 -56.31974,-135.706625 -84.83459,-10.66346 -28.514847,125.04316 121.70446,-94.47655 81.07054,27.16955 -40.63391,121.6461 -28.76252,-144.086498 -81.12418,-27.00897 -52.361652,117.07752 137.79741,-68.91785 74.21228,42.46357 -63.58512,111.38142 -0.1,-146.929207 -74.29621,-42.31655 -74.196234,104.61266 148.59487,-40.71067 64.50208,56.12575 -84.092794,96.83642 28.5664,-144.12551 -64.61309,-55.99792 z"
       inkscape:transform-center-x="11.144822"
       inkscape:transform-center-y="-9.1560893" />
    <path
       sodipodi:type="star"
       style="fill:#e42123;fill-opacity:1;stroke:#e45e36;stroke-width:4.36499977;stroke-linecap:round;stroke-miterlimit:4;stroke-dasharray:none;stroke-dashoffset:0;stroke-opacity:0"
       id="path821"
       sodipodi:sides="3"
       sodipodi:cx="-107.72321"
       sodipodi:cy="106.12203"
       sodipodi:r1="28.062029"
       sodipodi:r2="27.926901"
       sodipodi:arg1="0.47569522"
       sodipodi:arg2="1.5228928"
       inkscape:flatsided="true"
       inkscape:rounded="3.28"
       inkscape:randomized="5.067"
       d="M 31.667941,58.507316 C 16.686123,34.607411 -4.8530525,208.54371 -53.696502,193.3688 -102.53995,178.1939 -85.708386,45.742358 -73.991556,63.498115 -62.274727,81.253872 46.64976,82.407221 31.667941,58.507316 Z"
       transform="matrix(0.44461916,0,0,0.3209923,118.22972,155.30261)" />
    <path
       style="fill:#ffffff;fill-opacity:1;stroke:#e45e36;stroke-width:4.36499977;stroke-linecap:round;stroke-miterlimit:4;stroke-dasharray:none;stroke-dashoffset:0;stroke-opacity:0"
       id="path825"
       sodipodi:type="arc"
       sodipodi:cx="105.73008"
       sodipodi:cy="196.64851"
       sodipodi:rx="6.1421127"
       sodipodi:ry="9.921875"
       sodipodi:start="3.858923"
       sodipodi:end="0"
       d="m 101.10161,190.12612 a 6.1421127,9.921875 0 0 1 6.7845,-2.76811 6.1421127,9.921875 0 0 1 3.98608,9.2905 h -6.14211 z" />
    <path
       style="fill:#ffffff;fill-opacity:1;stroke:#e45e36;stroke-width:4.36499977;stroke-linecap:round;stroke-miterlimit:4;stroke-dasharray:none;stroke-dashoffset:0;stroke-opacity:0"
       id="path825-3"
       sodipodi:type="arc"
       sodipodi:cx="95.121696"
       sodipodi:cy="211.36607"
       sodipodi:rx="6.1421127"
       sodipodi:ry="9.921875"
       sodipodi:start="3.858923"
       sodipodi:end="0"
       d="m 90.493225,204.84368 a 6.1421127,9.921875 0 0 1 6.784505,-2.76811 6.1421127,9.921875 0 0 1 3.98608,9.2905 h -6.142114 z" />
    <path
       style="fill:#ffffff;fill-opacity:1;stroke:#e45e36;stroke-width:4.36499977;stroke-linecap:round;stroke-miterlimit:4;stroke-dasharray:none;stroke-dashoffset:0;stroke-opacity:0"
       id="path825-6"
       sodipodi:type="arc"
       sodipodi:cx="88.31813"
       sodipodi:cy="195.30208"
       sodipodi:rx="6.1421127"
       sodipodi:ry="9.921875"
       sodipodi:start="3.858923"
       sodipodi:end="0"
       d="m 83.689659,188.77968 a 6.1421127,9.921875 0 0 1 6.784505,-2.76811 6.1421127,9.921875 0 0 1 3.986079,9.29051 H 88.31813 Z" />
  </g>
</svg>
